<svg xmlns="http://www.w3.org/2000/svg" viewBox="0 0 48 48" fill="none">
  <circle cx="24" cy="24" r="24" fill="#418839" />
  <path d="M17 15h14a2 2 0 0 1 2 2v1H15v-1a2 2 0 0 1 2-2Z" fill="#fff" />
  <path d="M16 20h16l-1.4 14.2a3 3 0 0 1-3 2.8h-7.2a3 3 0 0 1-3-2.8L16 20Z" fill="#fff" />
  <rect x="20" y="13" width="8" height="3" rx="1.5" fill="#fff" />
  <circle cx="21" cy="27" r="1.6" fill="#418839" />
  <circle cx="27" cy="27" r="1.6" fill="#418839" />
  <path d="M20.5 31.5c1 1.2 6 1.2 7 0" stroke="#418839" stroke-width="1.6" stroke-linecap="round" />
</svg>
